<svg xmlns="http://www.w3.org/2000/svg" width="260" height="261" viewBox="0 0 260 261" version="1.1"><path d="M 94.110 105.750 C 90.502 107.688, 85.209 112.659, 76.177 122.592 C 59.333 141.114, 58.862 141.816, 58.274 149.324 C 57.682 156.884, 59.727 162.828, 66.311 172.682 C 70.109 178.366, 81.577 190, 83.383 190 C 83.667 190, 85.954 191.386, 88.465 193.081 C 97.451 199.146, 109.926 201.665, 117.646 198.973 C 119.266 198.409, 123.687 194.528, 127.472 190.350 L 134.353 182.752 127.926 176.604 C 124.392 173.222, 117.763 167.079, 113.196 162.951 C 106.860 157.226, 105.052 155.028, 105.569 153.681 C 105.942 152.710, 106.605 152.047, 107.042 152.208 C 107.480 152.368, 117.212 161.064, 128.669 171.531 C 157.907 198.242, 156.895 197.507, 164.353 197.469 C 169.606 197.443, 171.664 196.828, 178.500 193.236 C 188.570 187.944, 197.932 179.508, 204.977 169.377 C 207.990 165.045, 210.286 161.500, 210.080 161.500 C 209.873 161.500, 210.709 159.530, 211.938 157.122 C 214.749 151.611, 215.692 143.127, 214.046 138.141 C 212.858 134.540, 199.490 119.981, 197.403 120.014 C 196.906 120.022, 193.125 123.817, 189 128.448 C 179.549 139.057, 175.110 141.515, 165.500 141.461 C 160.321 141.432, 157.432 140.860, 154.394 139.264 C 152.136 138.078, 142.766 130.220, 133.571 121.803 C 124.376 113.386, 115.199 105.724, 113.177 104.776 C 107.503 102.116, 100.177 102.490, 94.110 105.750 M 103.705 178.250 C 100.879 180.356, 100.539 185.144, 102.994 188.266 C 106.337 192.515, 111.983 191.867, 114.530 186.942 C 116.063 183.978, 115.683 181.649, 113.193 178.750 C 111.443 176.712, 106.143 176.433, 103.705 178.250" stroke="none" fill="#a7dd90" fill-rule="evenodd"/><path d="M 154.945 39.771 C 151.038 41.604, 135.647 56.476, 136.163 57.920 C 136.348 58.440, 143.025 64.798, 151 72.050 C 158.975 79.302, 165.677 85.397, 165.893 85.594 C 166.108 85.791, 165.726 86.625, 165.043 87.448 C 163.986 88.722, 160.584 86.004, 142.151 69.156 C 119.238 48.213, 114.435 44.941, 105.554 44.224 C 100.686 43.831, 89 47.081, 89 48.828 C 89 49.204, 87.729 50.074, 86.176 50.762 C 82.961 52.185, 70.571 64.411, 65.977 70.694 C 60.849 77.705, 57.223 85.343, 56.076 91.547 C 54.420 100.506, 56.351 105.202, 65.077 113.434 C 68.905 117.045, 72.405 120, 72.853 120 C 73.302 120, 77.681 115.820, 82.584 110.710 C 92.338 100.547, 95.302 99, 105.020 99 C 113.466 99, 118.674 102.269, 137 119.072 C 146.075 127.392, 155.276 135.109, 157.447 136.221 C 162.050 138.577, 170.589 138.298, 175.763 135.622 C 177.461 134.744, 186.085 126.078, 194.927 116.364 C 212.500 97.058, 213.680 94.987, 212.677 85.203 C 211.942 78.029, 208.829 73.117, 198.206 62.372 C 178.731 42.673, 164.551 35.265, 154.945 39.771 M 159.345 50.281 C 154.527 52.807, 153.561 58.300, 157.314 61.826 C 160.218 64.553, 162.987 64.585, 166.365 61.927 C 172.582 57.038, 166.309 46.631, 159.345 50.281 M 58.478 194.496 C 63.415 199.281, 70.151 205.515, 73.446 208.348 C 78.781 212.937, 79.174 213.128, 77.041 210.097 C 74.282 206.177, 65.337 197.204, 59.500 192.502 C 50.560 185.300, 50.039 186.317, 58.478 194.496" stroke="none" fill="#557149" fill-rule="evenodd"/></svg>