<svg xmlns="http://www.w3.org/2000/svg" width="375" height="374" viewBox="0 0 375 374" version="1.1"><path d="M 165 77.267 C 165 77.422, 168.474 80.914, 172.720 85.025 L 180.440 92.500 174.470 85.945 C 169.309 80.279, 165 76.330, 165 77.267 M 240.500 80 C 241.495 81.100, 242.535 82, 242.810 82 C 243.085 82, 242.495 81.100, 241.500 80 C 240.505 78.900, 239.465 78, 239.190 78 C 238.915 78, 239.505 78.900, 240.500 80 M 266.405 82.858 C 268.443 85.150, 269 85.446, 269 84.241 C 269 83.823, 267.988 82.859, 266.750 82.099 C 264.508 80.722, 264.507 80.724, 266.405 82.858 M 196.317 93.813 C 198.365 95.910, 199.694 98.007, 199.270 98.473 C 198.847 98.939, 198.976 99.050, 199.558 98.720 C 200.696 98.074, 206.465 103.260, 225.749 122.264 C 232.486 128.903, 238.201 134.133, 238.449 133.885 C 238.996 133.338, 194.486 90, 193.377 90 C 192.947 90, 194.270 91.716, 196.317 93.813 M 95 95.500 C 92.571 97.975, 90.809 100, 91.084 100 C 91.359 100, 93.571 97.975, 96 95.500 C 98.429 93.025, 100.191 91, 99.916 91 C 99.641 91, 97.429 93.025, 95 95.500 M 287 102.500 C 288.292 103.875, 289.574 105, 289.849 105 C 290.124 105, 289.292 103.875, 288 102.500 C 286.708 101.125, 285.426 100, 285.151 100 C 284.876 100, 285.708 101.125, 287 102.500 M 201.500 113 C 208.083 119.600, 213.694 125, 213.969 125 C 214.244 125, 209.083 119.600, 202.500 113 C 195.917 106.400, 190.306 101, 190.031 101 C 189.756 101, 194.917 106.400, 201.500 113 M 227 137.500 C 228.866 139.425, 230.617 141, 230.892 141 C 231.167 141, 229.866 139.425, 228 137.500 C 226.134 135.575, 224.383 134, 224.108 134 C 223.833 134, 225.134 135.575, 227 137.500 M 165.671 158.250 C 166.005 158.938, 169.479 162.413, 173.389 165.973 L 180.500 172.446 173.025 164.723 C 168.914 160.475, 165.440 157, 165.306 157 C 165.172 157, 165.336 157.563, 165.671 158.250 M 83.500 173 C 88.427 177.950, 92.683 182, 92.958 182 C 93.233 182, 89.427 177.950, 84.500 173 C 79.573 168.050, 75.317 164, 75.042 164 C 74.767 164, 78.573 168.050, 83.500 173 M 164.473 171.787 C 168.308 175.754, 171.592 179, 171.770 179 C 172.609 179, 167.994 174.008, 163.021 169.537 C 158.274 165.270, 158.478 165.586, 164.473 171.787 M 199.986 191.250 C 207.403 198.813, 213.591 205, 213.736 205 C 214.453 205, 213.023 203.514, 200.250 190.986 L 186.500 177.500 199.986 191.250 M 193.500 200 C 200.083 206.600, 205.694 212, 205.969 212 C 206.244 212, 201.083 206.600, 194.500 200 C 187.917 193.400, 182.306 188, 182.031 188 C 181.756 188, 186.917 193.400, 193.500 200 M 267.978 206.750 L 259.500 215.500 268.250 207.022 C 273.063 202.359, 277 198.422, 277 198.272 C 277 197.544, 275.852 198.623, 267.978 206.750 M 296.443 204.724 C 299.711 208.147, 302.599 210.734, 302.859 210.474 C 303.120 210.213, 303.135 209.887, 302.893 209.750 C 302.652 209.613, 299.764 207.025, 296.477 204 L 290.500 198.501 296.443 204.724 M 156.500 244 C 163.083 250.600, 168.694 256, 168.969 256 C 169.244 256, 164.083 250.600, 157.500 244 C 150.917 237.400, 145.306 232, 145.031 232 C 144.756 232, 149.917 237.400, 156.500 244 M 150 252.337 C 156.875 259.378, 163.850 266.070, 165.500 267.209 L 168.500 269.280 165.500 266.457 C 163.850 264.904, 156.875 258.212, 150 251.585 L 137.500 239.536 150 252.337 M 289.405 265.250 C 287.502 267.498, 287.502 267.499, 289.581 265.748 C 290.726 264.784, 292.035 264.334, 292.491 264.748 C 292.948 265.162, 292.997 264.938, 292.601 264.250 C 291.660 262.615, 291.628 262.625, 289.405 265.250 M 190.500 277 C 197.083 283.600, 202.694 289, 202.969 289 C 203.244 289, 198.083 283.600, 191.500 277 C 184.917 270.400, 179.306 265, 179.031 265 C 178.756 265, 183.917 270.400, 190.500 277 M 282.924 273.750 L 280.500 276.500 283.250 274.076 C 284.762 272.742, 286 271.505, 286 271.326 C 286 270.541, 285.190 271.180, 282.924 273.750 M 175.958 277.250 C 178.410 279.863, 180.548 282, 180.708 282 C 181.459 282, 180.665 281.102, 176.250 276.958 L 171.500 272.500 175.958 277.250 M 272.437 284.250 L 269.500 287.500 272.750 284.563 C 274.538 282.948, 276 281.485, 276 281.313 C 276 280.540, 275.175 281.221, 272.437 284.250" stroke="none" fill="#3ca455" fill-rule="evenodd"/><path d="M 224.939 62.431 C 218.902 63.971, 216.559 65.786, 203.106 79.340 L 191.712 90.820 212.491 111.160 C 231.444 129.713, 237 134.827, 237 133.717 C 237 133.253, 217.965 114.502, 203.243 100.463 C 197.601 95.083, 193.194 90.473, 193.448 90.219 C 193.702 89.965, 203.998 99.550, 216.328 111.521 L 238.745 133.285 235.302 136.308 L 231.859 139.331 218.679 126.374 C 164.881 73.481, 163.443 72.246, 152.250 69.294 C 139.564 65.948, 127.857 68.993, 112.173 79.720 C 96.593 90.375, 86.660 101.126, 75.723 119.172 C 68.851 130.512, 66.695 137.699, 67.223 147.500 C 67.864 159.377, 70.575 163.676, 86.769 178.489 L 92.037 183.309 105.269 170.340 C 113.499 162.273, 120.269 156.524, 123.180 155.130 C 133.555 150.162, 147.136 150.234, 157.941 155.312 C 161.024 156.762, 170.727 165.460, 188.235 182.472 C 218.695 212.068, 222.225 214.488, 234.873 214.451 C 247.436 214.415, 250.660 212.375, 271.126 191.520 C 308.242 153.699, 308.481 153.365, 308.392 139.500 C 308.303 125.591, 303.654 117.131, 285.880 98.533 C 265.324 77.023, 245.853 63.361, 233.500 61.780 C 231.300 61.498, 227.447 61.791, 224.939 62.431 M 165 77.267 C 165 77.422, 168.474 80.914, 172.720 85.025 L 180.440 92.500 174.470 85.945 C 169.309 80.279, 165 76.330, 165 77.267 M 227.208 80.018 C 223.007 81.899, 221 85.336, 221 90.647 C 221 95.986, 226.327 101, 232 101 C 235.443 101, 236.813 100.387, 239.600 97.600 C 244.208 92.992, 244.351 87.608, 239.995 82.648 C 236.377 78.526, 232.378 77.704, 227.208 80.018 M 240.500 80 C 241.495 81.100, 242.535 82, 242.810 82 C 243.085 82, 242.495 81.100, 241.500 80 C 240.505 78.900, 239.465 78, 239.190 78 C 238.915 78, 239.505 78.900, 240.500 80 M 266.405 82.858 C 268.443 85.150, 269 85.446, 269 84.241 C 269 83.823, 267.988 82.859, 266.750 82.099 C 264.508 80.722, 264.507 80.724, 266.405 82.858 M 95 95.500 C 92.571 97.975, 90.809 100, 91.084 100 C 91.359 100, 93.571 97.975, 96 95.500 C 98.429 93.025, 100.191 91, 99.916 91 C 99.641 91, 97.429 93.025, 95 95.500 M 287 102.500 C 288.292 103.875, 289.574 105, 289.849 105 C 290.124 105, 289.292 103.875, 288 102.500 C 286.708 101.125, 285.426 100, 285.151 100 C 284.876 100, 285.708 101.125, 287 102.500 M 201.500 113 C 208.083 119.600, 213.694 125, 213.969 125 C 214.244 125, 209.083 119.600, 202.500 113 C 195.917 106.400, 190.306 101, 190.031 101 C 189.756 101, 194.917 106.400, 201.500 113 M 227 137.500 C 228.866 139.425, 230.617 141, 230.892 141 C 231.167 141, 229.866 139.425, 228 137.500 C 226.134 135.575, 224.383 134, 224.108 134 C 223.833 134, 225.134 135.575, 227 137.500 M 165.671 158.250 C 166.005 158.938, 169.479 162.413, 173.389 165.973 L 180.500 172.446 173.025 164.723 C 168.914 160.475, 165.440 157, 165.306 157 C 165.172 157, 165.336 157.563, 165.671 158.250 M 131.500 159.399 C 123.765 161.845, 120.927 164.176, 101.236 184.250 C 74.536 211.471, 71.617 214.764, 69.559 220 C 63.609 235.131, 72.142 257.700, 91.385 277.729 C 102.539 289.338, 110.052 295.063, 122.399 301.364 C 132.618 306.580, 140.808 308.514, 149.031 307.655 C 157.591 306.760, 161.169 304.497, 173 292.490 L 183.500 281.834 161 259.960 L 138.500 238.086 140.679 235.892 L 142.857 233.698 149.364 239.599 C 152.943 242.845, 168.838 258.127, 184.686 273.561 C 205.361 293.695, 214.877 302.282, 218.374 303.960 C 224.299 306.803, 233.089 307.022, 240.500 304.512 C 248.607 301.766, 262.753 294.311, 268.841 289.575 C 274.677 285.036, 286.035 273.699, 289.841 268.615 C 292.657 264.852, 292.607 263.176, 289.750 265.595 L 287.500 267.500 289.384 265.274 C 290.420 264.049, 291.597 263.251, 292 263.500 C 293.111 264.187, 295.285 261.304, 300.294 252.500 C 308.977 237.238, 311.236 224.525, 306.945 215.067 C 304.777 210.288, 284.316 188.687, 282.828 189.606 C 282.355 189.899, 282.272 190.670, 282.644 191.319 C 283.016 191.969, 282.941 192.155, 282.477 191.733 C 282.012 191.311, 276.203 196.305, 269.566 202.831 C 253.700 218.433, 249.775 220.436, 234.982 220.473 C 218.720 220.515, 216.965 219.417, 187.500 190.779 C 174.300 177.949, 161.699 166.051, 159.498 164.338 C 152.226 158.681, 140.379 156.591, 131.500 159.399 M 83.500 173 C 88.427 177.950, 92.683 182, 92.958 182 C 93.233 182, 89.427 177.950, 84.500 173 C 79.573 168.050, 75.317 164, 75.042 164 C 74.767 164, 78.573 168.050, 83.500 173 M 164.473 171.787 C 168.308 175.754, 171.592 179, 171.770 179 C 172.609 179, 167.994 174.008, 163.021 169.537 C 158.274 165.270, 158.478 165.586, 164.473 171.787 M 199.986 191.250 C 207.403 198.813, 213.591 205, 213.736 205 C 214.453 205, 213.023 203.514, 200.250 190.986 L 186.500 177.500 199.986 191.250 M 193.500 200 C 200.083 206.600, 205.694 212, 205.969 212 C 206.244 212, 201.083 206.600, 194.500 200 C 187.917 193.400, 182.306 188, 182.031 188 C 181.756 188, 186.917 193.400, 193.500 200 M 267.978 206.750 L 259.500 215.500 268.250 207.022 C 273.063 202.359, 277 198.422, 277 198.272 C 277 197.544, 275.852 198.623, 267.978 206.750 M 296.443 204.724 C 299.711 208.147, 302.599 210.734, 302.859 210.474 C 303.120 210.213, 303.135 209.887, 302.893 209.750 C 302.652 209.613, 299.764 207.025, 296.477 204 L 290.500 198.501 296.443 204.724 M 156.500 244 C 163.083 250.600, 168.694 256, 168.969 256 C 169.244 256, 164.083 250.600, 157.500 244 C 150.917 237.400, 145.306 232, 145.031 232 C 144.756 232, 149.917 237.400, 156.500 244 M 150 252.337 C 156.875 259.378, 163.850 266.070, 165.500 267.209 L 168.500 269.280 165.500 266.457 C 163.850 264.904, 156.875 258.212, 150 251.585 L 137.500 239.536 150 252.337 M 190.500 277 C 197.083 283.600, 202.694 289, 202.969 289 C 203.244 289, 198.083 283.600, 191.500 277 C 184.917 270.400, 179.306 265, 179.031 265 C 178.756 265, 183.917 270.400, 190.500 277 M 140.445 272.093 C 135.301 273.546, 132.500 277.412, 132.500 283.058 C 132.500 289.197, 135.682 292.879, 141.685 293.685 C 152.664 295.157, 159.210 282.219, 151.238 274.804 C 147.973 271.767, 144.598 270.920, 140.445 272.093 M 282.924 273.750 L 280.500 276.500 283.250 274.076 C 284.762 272.742, 286 271.505, 286 271.326 C 286 270.541, 285.190 271.180, 282.924 273.750 M 175.958 277.250 C 178.410 279.863, 180.548 282, 180.708 282 C 181.459 282, 180.665 281.102, 176.250 276.958 L 171.500 272.500 175.958 277.250 M 272.437 284.250 L 269.500 287.500 272.750 284.563 C 274.538 282.948, 276 281.485, 276 281.313 C 276 280.540, 275.175 281.221, 272.437 284.250" stroke="none" fill="#3b9c54" fill-rule="evenodd"/></svg>